<svg width="1255" height="293" viewBox="0 0 1255 293" fill="white" xmlns="http://www.w3.org/2000/svg">
<path d="M643.092 293.001C587.8 293.001 559.166 254.823 559.166 208.416C559.166 162.01 587.8 123.832 640.788 123.832C693.777 123.832 720.436 160.035 720.436 208.745V215.328H595.699V216.315C595.699 243.962 611.826 267.658 642.105 267.658C668.106 267.658 678.308 253.506 681.929 240.012H718.461C711.55 265.684 690.815 293.001 643.092 293.001ZM596.028 191.96H683.903C682.916 169.58 669.422 149.174 640.788 149.174C613.471 149.174 598.661 167.605 596.028 191.96Z" fill="white"/>
<path d="M739.964 126.136H777.813V147.529C788.016 132.389 804.472 123.832 827.51 123.832C867.663 123.832 892.018 148.187 892.018 190.644V293H854.169V191.96C854.169 164.972 841.333 149.833 816.649 149.833C790.978 149.833 777.813 167.605 777.813 195.581V293H739.964V126.136Z" fill="white"/>
<path d="M981.649 293.001C936.56 293.001 910.23 257.456 910.23 208.416C910.23 159.377 936.56 123.832 981.649 123.832C1006.66 123.832 1024.76 134.035 1035.63 149.833V64.6203H1073.47V293H1035.63V266.671C1024.76 282.798 1006.66 293.001 981.649 293.001ZM948.079 208.416C948.079 241.658 962.231 267.658 991.852 267.658C1021.14 267.658 1035.63 243.303 1035.63 208.416C1035.63 173.529 1021.14 149.174 991.852 149.174C962.231 149.174 948.079 175.175 948.079 208.416Z" fill="white"/>
<path d="M1172.87 293.001C1119.88 293.001 1091.25 259.43 1091.25 208.416C1091.25 157.402 1119.88 123.832 1172.87 123.832C1225.86 123.832 1254.49 157.402 1254.49 208.416C1254.49 259.43 1225.86 293.001 1172.87 293.001ZM1129.1 208.416C1129.1 243.962 1142.92 268.317 1172.87 268.317C1202.82 268.317 1216.64 243.962 1216.64 208.416C1216.64 172.871 1202.82 148.516 1172.87 148.516C1142.92 148.516 1129.1 172.871 1129.1 208.416Z" fill="white"/>
<path d="M439.351 293.001C386.363 293.001 347.855 257.126 347.855 178.795C347.855 100.464 390.312 64.5898 448.238 64.5898C506.163 64.5898 537.101 94.8691 540.392 140.946H502.543C498.923 114.946 483.454 93.5526 448.238 93.5526C408.414 93.5526 385.705 123.832 385.705 178.795C385.705 235.404 406.768 265.354 447.909 265.354C485.758 265.354 504.189 239.676 504.189 205.165H444.947V180.481H540.392V293H514.062L513.638 244.075C503.764 280.279 476.213 293.001 439.351 293.001Z" fill="white"/>
<path fill-rule="evenodd" clip-rule="evenodd" d="M220.189 36.3764C218.78 36.8026 218.787 38.7887 220.199 39.2045L220.546 39.3065C237.579 44.3212 250.874 57.6114 255.827 74.5745C256.234 75.9709 258.224 75.9705 258.642 74.577C263.697 57.7273 276.924 44.4751 293.843 39.3598L294.24 39.2396C295.646 38.8145 295.637 36.8318 294.227 36.4195L293.82 36.3004C276.783 31.3185 263.492 18.0178 258.59 1.04538C258.188 -0.347026 256.204 -0.346167 255.788 1.04201C250.735 17.877 237.514 31.1364 220.61 36.2489L220.189 36.3764ZM230.024 218.488L230.024 64.5864H179.478V64.5921H68.3085L-0.00195246 139.062L-0.00195312 292.967H50.5436V292.962H161.711L230.024 218.488ZM179.478 249.988L179.478 107.566H50.5437L50.5436 249.988L179.478 249.988Z" fill="white"/>
</svg>
